<?xml version="1.0" encoding="UTF-8"?>
<svg xmlns="http://www.w3.org/2000/svg" xmlns:xlink="http://www.w3.org/1999/xlink" viewBox="0 0 500 274.49">
  <defs>
    <linearGradient id="linear-gradient" x1="0" y1="137.16" x2="500" y2="137.16" gradientUnits="userSpaceOnUse">
      <stop offset="0" stop-color="#00d6ee"/>
      <stop offset="1" stop-color="#009ae1"/>
    </linearGradient>
    <clipPath id="clippath">
      <path d="m400.15,74.62c-9.11,0-17.92,1.24-26.31,3.53C351.78,31.93,304.62,0,250,0s-101.78,31.93-123.84,78.14c-8.38-2.29-17.2-3.53-26.31-3.53C44.71,74.62,0,119.32,0,174.47c0,1.54.04,3.06.12,4.58,4.08,83.93,110.52,83.57,228.67-33.06,5.33-5.93,10.88-11.99,16.54-18.02,0,0,0,0,0,0h0l-19.83-15.37-50.34-34.21c-.8-.54-.91-1.68-.23-2.37l5.53-5.54c1.15-1.15,2.87-1.6,4.62-1.2,0,0,70.55,19.14,91.11,27.46,26.05-24.39,57.9-44.7,61.9-40.7,4.23,4.23-16.5,35.54-40.85,61.45,8.32,19.74,27.86,91.8,27.86,91.8.4,1.75-.04,3.47-1.2,4.62l-5.54,5.53c-.69.68-1.83.58-2.37-.23l-34.21-50.34-15.76-20.33c-.19.18-.38.35-.57.53h0c-82.42,82.42-10.31,125.26,53.7,125.26h81.02c55.15,0,99.85-44.71,99.85-99.85s-44.71-99.85-99.85-99.85Z" style="fill: none;"/>
    </clipPath>
  </defs>
  <g style="isolation: isolate;">
    <g id="Layer_3" data-name="Layer 3">
      <path d="m400.15,74.62c-9.11,0-17.92,1.24-26.31,3.53C351.78,31.93,304.62,0,250,0s-101.78,31.93-123.84,78.14c-8.38-2.29-17.2-3.53-26.31-3.53C44.71,74.62,0,119.32,0,174.47c0,1.54.04,3.06.12,4.58,4.08,83.93,110.52,83.57,228.67-33.06,5.33-5.93,10.88-11.99,16.54-18.02,0,0,0,0,0,0h0l-19.83-15.37-50.34-34.21c-.8-.54-.91-1.68-.23-2.37l5.53-5.54c1.15-1.15,2.87-1.6,4.62-1.2,0,0,70.55,19.14,91.11,27.46,26.05-24.39,57.9-44.7,61.9-40.7,4.23,4.23-16.5,35.54-40.85,61.45,8.32,19.74,27.86,91.8,27.86,91.8.4,1.75-.04,3.47-1.2,4.62l-5.54,5.53c-.69.68-1.83.58-2.37-.23l-34.21-50.34-15.76-20.33c-.19.18-.38.35-.57.53h0c-82.42,82.42-10.31,125.26,53.7,125.26h81.02c55.15,0,99.85-44.71,99.85-99.85s-44.71-99.85-99.85-99.85Z" style="fill: url(#linear-gradient);"/>
      <g style="clip-path: url(#clippath);">
        <circle cx="347.21" cy="242.46" r="131.32" transform="translate(-69.75 316.53) rotate(-45)" style="fill: #00d6ee; mix-blend-mode: multiply;"/>
        <circle cx="105.31" cy="227.1" r="121.54" style="fill: #00d6ee; mix-blend-mode: multiply;"/>
      </g>
    </g>
  </g>
</svg>