<?xml version="1.0" encoding="UTF-8"?>
<svg xmlns="http://www.w3.org/2000/svg" xmlns:xlink="http://www.w3.org/1999/xlink" viewBox="0 0 256 256">
  <defs>
    <linearGradient id="linear-gradient" x1="75.18" y1="77.88" x2="213.22" y2="221.63" gradientUnits="userSpaceOnUse">
      <stop offset="0" stop-color="#bd5600"/>
      <stop offset="1" stop-color="#fff"/>
    </linearGradient>
  </defs>
  <g style="isolation: isolate;">
    <g id="Layer_1" data-name="Layer 1">
      <rect x="-4.78" y="-4.78" width="265.56" height="265.56" style="fill: #fb671d;"/>
      <g>
        <path d="m249.91,162.12c-12.7,45.51-50.21,80.65-97.02,89.98l-109.46-109.58,8.23-4.47-8.38-8.08,23.78-7.7-1.24-19.42,3.94-19.75,18.74-13.8,28.42,9.86,7.79-3.52,36.09,36.27-.89,3.64,10.87-29.01,4.92,1.27,74.22,74.31Z" style="fill: url(#linear-gradient); mix-blend-mode: multiply;"/>
        <g>
          <path d="m206.43,133.15h-13.87c-1.02,0-1.85.83-1.85,1.86s.83,1.85,1.85,1.85h13.87c1.79,0,3.24,1.45,3.24,3.23v40.68c0,1.78-1.45,3.23-3.24,3.23h-69.54c-1.78,0-3.23-1.45-3.23-3.23v-78.45c0-1.02-.83-1.85-1.85-1.85s-1.85.83-1.85,1.85v78.45c0,3.83,3.11,6.94,6.94,6.94h69.54c3.83,0,6.94-3.11,6.94-6.94v-40.68c0-3.83-3.11-6.94-6.94-6.94Z" style="fill: #284962;"/>
          <g>
            <path d="m193.79,178.15c1.88,0,3.4-1.52,3.4-3.4v-62.56c0-1.88-1.52-3.41-3.4-3.41h-100.31c-1.88,0-3.41,1.53-3.41,3.41v62.56c0,1.88,1.53,3.4,3.41,3.4h100.31Z" style="fill: #14b0bf;"/>
            <rect x="98.32" y="116.77" width="87.75" height="53.39" style="fill: #d5ecfc;"/>
            <polygon points="186.07 170.16 186.07 116.77 98.32 170.16 186.07 170.16" style="fill: #a6dae8;"/>
            <g>
              <path d="m191.56,146.32c1.66,0,3-1.35,3-3.01h0c0-1.66-1.34-3-3-3h0c-1.65,0-3,1.34-3,3h0c0,1.66,1.35,3.01,3,3.01h0Z" style="fill: #fff;"/>
              <path d="m191.36,160.43c.66,0,1.2-.54,1.2-1.2v-7.01c0-.66-.54-1.2-1.2-1.2h0c-.66,0-1.2.54-1.2,1.2v7.01c0,.66.54,1.2,1.2,1.2h0Z" style="fill: #fff;"/>
              <path d="m191.36,135.91c.66,0,1.2-.54,1.2-1.2v-7.01c0-.67-.54-1.2-1.2-1.2h0c-.66,0-1.2.53-1.2,1.2v7.01c0,.66.54,1.2,1.2,1.2h0Z" style="fill: #fff;"/>
            </g>
          </g>
          <g>
            <path d="m149.4,153.97c-.38.99-1.49,1.49-2.49,1.12h0c-.99-.38-1.5-1.49-1.12-2.49l1.18-3.12c.38-.99,1.49-1.49,2.48-1.12h0c1,.38,1.5,1.49,1.12,2.48l-1.18,3.12Z" style="fill: #284962;"/>
            <path d="m151.75,150.5c-.47,1.24-1.86,1.87-3.1,1.4l-.92-.35c-1.24-.47-1.87-1.86-1.4-3.1l23.34-61.64c.47-1.24,1.86-1.87,3.1-1.4l.92.35c1.24.47,1.86,1.85,1.4,3.1l-23.33,61.64Z" style="fill: #d93d15;"/>
            <path d="m151.26,146.01c-.17.44-.65.66-1.1.49h0c-.44-.17-.66-.66-.49-1.09l1.71-4.51c.16-.44.65-.66,1.1-.49h0c.44.16.66.65.49,1.1l-1.71,4.5Z" style="fill: #f99a24;"/>
          </g>
          <g>
            <path d="m119.13,82.7l-4.12,2.48c-7.08-11.78-22.43-15.6-34.21-8.52-11.78,7.08-15.6,22.43-8.52,34.21l-4.12,2.48c-8.45-14.05-3.89-32.36,10.16-40.81,14.05-8.45,32.36-3.89,40.81,10.16Z" style="fill: #14b0bf;"/>
            <path d="m83.28,128.24c1.37,2.28.63,5.23-1.64,6.6l-3.95,2.38c-2.28,1.36-5.23.63-6.6-1.64l-11.66-19.39c-1.37-2.28-.63-5.23,1.64-6.59l3.95-2.38c2.28-1.37,5.23-.63,6.6,1.64l11.66,19.39Z" style="fill: #284962;"/>
            <path d="m137.22,95.81c1.36,2.27.64,5.22-1.64,6.59l-3.95,2.38c-2.27,1.36-5.23.63-6.59-1.64l-11.66-19.39c-1.37-2.28-.63-5.23,1.64-6.6l3.95-2.37c2.28-1.37,5.22-.63,6.59,1.64l11.66,19.4Z" style="fill: #284962;"/>
          </g>
          <path d="m43.83,130.18c-.53,0-1.01-.35-1.16-.89-.17-.64.21-1.3.85-1.47l16.22-4.33c.64-.17,1.3.21,1.47.85.17.64-.21,1.3-.85,1.47l-16.22,4.32c-.1.03-.21.04-.31.04Z" style="fill: #fdc00f;"/>
          <path d="m55.7,150.49c-.31,0-.61-.12-.84-.35-.47-.46-.48-1.23-.01-1.69l11.8-11.94c.47-.47,1.23-.48,1.7,0,.47.47.48,1.22.01,1.7l-11.81,11.94c-.23.24-.54.36-.85.36Z" style="fill: #fdc00f;"/>
          <path d="m43.84,142.96c-.43,0-.84-.23-1.06-.63-.32-.59-.1-1.31.49-1.63l20.08-10.81c.58-.32,1.31-.1,1.63.49.32.58.1,1.31-.49,1.63l-20.08,10.81c-.18.1-.38.14-.57.14Z" style="fill: #fdc00f;"/>
        </g>
      </g>
    </g>
  </g>
</svg>