<?xml version="1.0" encoding="UTF-8"?>
<svg xmlns="http://www.w3.org/2000/svg" xmlns:xlink="http://www.w3.org/1999/xlink" viewBox="0 0 256 256">
  <defs>
    <linearGradient id="linear-gradient" x1="107.1" y1="109.68" x2="215.03" y2="222.07" gradientUnits="userSpaceOnUse">
      <stop offset="0" stop-color="#d99c00"/>
      <stop offset="1" stop-color="#fff"/>
    </linearGradient>
  </defs>
  <g style="isolation: isolate;">
    <g id="Layer_1" data-name="Layer 1">
      <rect x="-4.78" y="-4.78" width="265.56" height="265.56" style="fill: #f5bb11;"/>
      <g>
        <path d="m255.87,136.43c-4.21,66.61-59.57,119.35-127.29,119.35h-.99l-84.52-84.61,155.94-91.59,56.85,56.85Z" style="fill: url(#linear-gradient); mix-blend-mode: multiply;"/>
        <g>
          <path d="m199.62,161.57c0,2.17-1.76,3.92-3.93,3.92H61.48c-2.16,0-3.92-1.75-3.92-3.92v-80.52c0-2.16,1.76-3.92,3.92-3.92h134.22c2.17,0,3.93,1.75,3.93,3.92v80.52Z" style="fill: #284962;"/>
          <rect x="66.7" y="83.37" width="123.77" height="75.88" style="fill: #fff;"/>
          <path d="m209.8,176.58c-2.05,2.72-6.27,2.7-8.43,2.7H55.81c-2.16,0-5.1.41-8.43-2.7l-4.51-5.39c-1.09-1.25-1.13-2.7,3.91-2.7h163.62c5,0,5,1.49,3.92,2.7l-4.51,5.39Z" style="fill: #284962;"/>
          <path d="m77.68,88.1h100.16c2.49,0,4.51,2.02,4.51,4.51v56.99c0,2.49-2.02,4.51-4.51,4.51h-100.16c-2.49,0-4.51-2.02-4.51-4.51v-56.99c0-2.49,2.02-4.51,4.51-4.51Z" style="fill: #a6dae8;"/>
          <path d="m77.68,88.1h100.16c2.49,0,4.51,2.02,4.51,4.51v3.76c0,2.49-2.02,4.51-4.51,4.51h-100.16c-2.49,0-4.51-2.02-4.51-4.51v-3.76c0-2.49,2.02-4.51,4.51-4.51Z" style="fill: #14b0bf;"/>
          <path d="m84.45,94.24c0,1.6-1.29,2.9-2.89,2.9h-3.78c-1.6,0-2.89-1.3-2.89-2.9h0c0-1.6,1.3-2.89,2.89-2.89h3.78c1.6,0,2.89,1.3,2.89,2.89h0Z" style="fill: #ffb700;"/>
          <path d="m95.21,94.24c0,1.6-1.29,2.9-2.89,2.9h-3.78c-1.6,0-2.89-1.3-2.89-2.9h0c0-1.6,1.3-2.89,2.89-2.89h3.78c1.6,0,2.89,1.3,2.89,2.89h0Z" style="fill: #fc611f;"/>
          <path d="m106.29,94.24c0,1.6-1.3,2.9-2.89,2.9h-3.78c-1.6,0-2.89-1.3-2.89-2.9h0c0-1.6,1.3-2.89,2.89-2.89h3.78c1.6,0,2.89,1.3,2.89,2.89h0Z" style="fill: #d5ecfc;"/>
          <rect x="79.67" y="106.16" width="92.53" height="44.39" style="fill: #d5ecfc;"/>
          <rect x="87.18" y="114.06" width="19.1" height="4.51" style="fill: #284962;"/>
          <rect x="87.18" y="126.1" width="31.71" height="4.51" style="fill: #284962;"/>
          <rect x="87.18" y="137.38" width="19.13" height="4.51" style="fill: #284962;"/>
          <rect x="113.08" y="137.38" width="26.39" height="4.51" style="fill: #284962;"/>
          <rect x="125.94" y="126.1" width="19.55" height="4.51" style="fill: #284962;"/>
          <rect x="150.38" y="126.1" width="15.04" height="4.51" style="fill: #284962;"/>
          <g>
            <rect x="139.47" y="132.49" width="8.36" height="2.26" style="fill: #284962;"/>
            <rect x="139.47" y="144.53" width="8.36" height="2.26" style="fill: #284962;"/>
            <rect x="142.53" y="133.62" width="2.26" height="12.04" style="fill: #284962;"/>
          </g>
        </g>
      </g>
    </g>
  </g>
</svg>