<?xml version="1.0" encoding="UTF-8"?>
<svg xmlns="http://www.w3.org/2000/svg" xmlns:xlink="http://www.w3.org/1999/xlink" viewBox="0 0 256 256">
  <defs>
    <linearGradient id="linear-gradient" x1="106.1" y1="123.72" x2="206.65" y2="228.42" gradientUnits="userSpaceOnUse">
      <stop offset="0" stop-color="#59b8d2"/>
      <stop offset="1" stop-color="#fff"/>
    </linearGradient>
  </defs>
  <g style="isolation: isolate;">
    <g id="Layer_1" data-name="Layer 1">
      <rect x="-4.78" y="-4.78" width="265.56" height="265.56" style="fill: #a4d8e6;"/>
      <g>
        <path d="m254.92,128.43c-.24,69.9-56.98,126.49-126.93,126.49-16.66,0-32.57-3.21-47.15-9.06l-49.79-50.06,194.13-97,29.75,29.63Z" style="fill: url(#linear-gradient); mix-blend-mode: multiply;"/>
        <g>
          <g>
            <path d="m187.07,186.88c0,2.15-1.75,3.9-3.91,3.9H49.63c-2.15,0-3.9-1.75-3.9-3.9v-80.11c0-2.15,1.75-3.9,3.9-3.9h133.54c2.16,0,3.91,1.75,3.91,3.9v80.11Z" style="fill: #284962;"/>
            <rect x="54.83" y="109.08" width="123.14" height="75.49" style="fill: #fff;"/>
            <polygon points="177.97 184.57 54.83 184.57 177.97 109.08 177.97 184.57" style="fill: #d5ecfc;"/>
            <path d="m197.2,201.81c-2.04,2.7-6.24,2.69-8.39,2.69H43.99c-2.15,0-5.07.41-8.39-2.69l-4.49-5.36c-1.08-1.25-1.12-2.69,3.9-2.69h162.79c4.98,0,4.98,1.48,3.9,2.69l-4.49,5.36Z" style="fill: #284962;"/>
          </g>
          <g>
            <path d="m194.86,132.67c-2.34,6.18-24.55,9.35-47.19.75-22.65-8.6-37.16-25.71-34.81-31.89l13.77-36.27c11.51-8.28,27.36,8.07,41.77,13.54,14.77,5.61,37.27,3.64,40.23,17.6l-13.77,36.27Z" style="fill: #285a73;"/>
            <g>
              <path d="m158.38,102.36c-.54,0-1.06-.22-1.44-.62l-42.42-44.95c-.56-.59-.7-1.46-.36-2.19.33-.7,1.03-1.14,1.79-1.14.04,0,60.08,3.55,60.08,3.55.45.03.88.21,1.21.51l45.61,41.34c.6.55.81,1.41.52,2.17-.3.76-1.03,1.26-1.84,1.26l-63.15.05Z" style="fill: #284962;"/>
              <path d="m224.18,97.41l-45.61-41.34c-.67-.6-1.52-.96-2.42-1.01l-59.96-3.55c-.08,0-.16,0-.23,0-1.52,0-2.92.88-3.58,2.28-.68,1.47-.4,3.2.71,4.38l42.42,44.94c.74.79,1.78,1.24,2.87,1.24h0l63.15-.05c1.63,0,3.09-1.01,3.68-2.53.59-1.52.18-3.25-1.03-4.34Zm-65.8,2.97l-42.42-44.95,59.96,3.55,45.61,41.34-63.15.05Z" style="fill: #284962;"/>
            </g>
            <path d="m202.63,157.05c-1.09,0-1.97-.88-1.97-1.97v-42.06l-33.64-32.81c-.78-.76-.79-2.01-.03-2.79.76-.78,2.01-.79,2.79-.03l34.23,33.39c.38.37.6.88.6,1.41v42.89c0,1.09-.88,1.97-1.97,1.97Z" style="fill: #ffb700;"/>
            <path d="m211.26,162.28c.04,3.16-2.51,5.75-5.66,5.78l-5.72.06c-3.16.03-5.75-2.5-5.78-5.66l-.08-7.9c-.03-3.16,2.44-11.47,5.6-11.5l5.72-.06c3.15-.03,5.8,8.22,5.83,11.38l.09,7.9Z" style="fill: #f99a24;"/>
          </g>
          <g>
            <path d="m70.71,156.82h-7.39v-12.82h7.39v2.23h-4.67v2.82h4.34v2.23h-4.34v3.31h4.67v2.24Z" style="fill: #14b0bf;"/>
            <path d="m72.31,153.1v-2.19h4.71v2.19h-4.71Z" style="fill: #14b0bf;"/>
            <path d="m79.17,156.82v-12.82h2.72v10.58h5.2v2.24h-7.92Z" style="fill: #14b0bf;"/>
            <path d="m96.7,156.82h-7.39v-12.82h7.39v2.23h-4.67v2.82h4.34v2.23h-4.34v3.31h4.67v2.24Z" style="fill: #14b0bf;"/>
            <path d="m107.23,156.82l-.93-3.05h-4.67l-.93,3.05h-2.93l4.53-12.88h3.32l4.54,12.88h-2.93Zm-1.58-5.33c-.86-2.77-1.34-4.33-1.45-4.69-.11-.36-.19-.65-.23-.86-.19.75-.75,2.6-1.66,5.55h3.34Z" style="fill: #14b0bf;"/>
            <path d="m114.49,151.89v4.92h-2.72v-12.82h3.73c1.75,0,3.03.32,3.87.95.84.64,1.26,1.6,1.26,2.89,0,.75-.21,1.43-.62,2.01-.41.59-1,1.05-1.76,1.38,1.93,2.88,3.19,4.75,3.78,5.59h-3.02l-3.06-4.92h-1.44Zm0-2.21h.88c.86,0,1.5-.14,1.9-.43.41-.29.61-.74.61-1.35s-.21-1.04-.63-1.3c-.42-.26-1.07-.39-1.94-.39h-.82v3.47Z" style="fill: #14b0bf;"/>
            <path d="m135.01,156.82h-3.46l-5.58-9.7h-.08c.11,1.71.17,2.94.17,3.67v6.03h-2.43v-12.82h3.43l5.57,9.61h.06c-.09-1.67-.13-2.85-.13-3.53v-6.07h2.45v12.82Z" style="fill: #14b0bf;"/>
            <path d="m138.23,156.82v-12.82h2.72v12.82h-2.72Z" style="fill: #14b0bf;"/>
            <path d="m155.56,156.82h-3.46l-5.58-9.7h-.08c.11,1.71.17,2.94.17,3.67v6.03h-2.43v-12.82h3.43l5.57,9.61h.06c-.09-1.67-.13-2.85-.13-3.53v-6.07h2.45v12.82Z" style="fill: #14b0bf;"/>
            <path d="m163.65,149.61h5.09v6.65c-.83.27-1.6.46-2.33.57-.72.11-1.47.16-2.23.16-1.94,0-3.41-.57-4.43-1.71-1.02-1.14-1.53-2.77-1.53-4.9s.59-3.68,1.77-4.84c1.18-1.16,2.83-1.74,4.93-1.74,1.32,0,2.59.26,3.81.79l-.9,2.18c-.94-.47-1.91-.7-2.92-.7-1.17,0-2.12.39-2.82,1.18-.71.79-1.06,1.85-1.06,3.19s.29,2.45.86,3.19c.57.73,1.4,1.1,2.49,1.1.57,0,1.14-.06,1.73-.18v-2.67h-2.43v-2.26Z" style="fill: #14b0bf;"/>
          </g>
        </g>
      </g>
    </g>
  </g>
</svg>