<?xml version="1.0" encoding="UTF-8"?>
<svg xmlns="http://www.w3.org/2000/svg" xmlns:xlink="http://www.w3.org/1999/xlink" viewBox="0 0 256 256">
  <defs>
    <linearGradient id="linear-gradient" x1="116.77" y1="87.1" x2="231.2" y2="206.26" gradientUnits="userSpaceOnUse">
      <stop offset="0" stop-color="#0d99a8"/>
      <stop offset="1" stop-color="#fff"/>
    </linearGradient>
  </defs>
  <g style="isolation: isolate;">
    <g id="Layer_1" data-name="Layer 1">
      <rect x="-4.78" y="-4.78" width="265.56" height="265.56" style="fill: #0d99a8;"/>
      <g>
        <path d="m256,128.01c0,56.62-36.86,104.66-87.89,121.44l-48.04-47.83,3.08-9.09-56.8-57.01,125.32-78.74,64.12,64.01c.15,2.39.21,4.81.21,7.23Z" style="fill: url(#linear-gradient); mix-blend-mode: multiply;"/>
        <g>
          <g>
            <g>
              <path d="m68.59,136.38c-2.23,0-4.04-1.81-4.04-4.05V57.96c0-2.24,1.81-4.05,4.04-4.05h119.25c2.24,0,4.05,1.81,4.05,4.05v74.37c0,2.24-1.81,4.05-4.05,4.05h-119.25Z" style="fill: #284962;"/>
              <rect x="77.78" y="63.41" width="104.31" height="63.47" style="fill: #fff;"/>
              <g>
                <path d="m71.24,98.54c-1.98,0-3.57-1.6-3.57-3.57h0c0-1.97,1.59-3.57,3.57-3.57h0c1.97,0,3.57,1.6,3.57,3.57h0c0,1.97-1.6,3.57-3.57,3.57h0Z" style="fill: #fff;"/>
                <path d="m71.48,115.32c-.78,0-1.43-.64-1.43-1.43v-8.34c0-.79.64-1.43,1.43-1.43h0c.79,0,1.43.64,1.43,1.43v8.34c0,.79-.64,1.43-1.43,1.43h0Z" style="fill: #fff;"/>
                <path d="m71.48,86.16c-.78,0-1.43-.63-1.43-1.43v-8.33c0-.79.64-1.43,1.43-1.43h0c.79,0,1.43.64,1.43,1.43v8.33c0,.79-.64,1.43-1.43,1.43h0Z" style="fill: #fff;"/>
              </g>
            </g>
            <rect x="83.38" y="69.66" width="92.25" height="49.09" style="fill: #14b0bf;"/>
            <g>
              <path d="m112.56,69.66c-4.29,3.34-9.46,9.54-7.78,15.37.12,2.95,1.35,3.63.79,6.14-.54,2.51-4.73,5.47-4.85,7.05-.13,1.6,2.74,2.39,3.36,2.88.6.48-1.08,2.26-1.08,2.74s1.58.52,1.33.87c-.25.37-.91,1.18-.54,1.79.35.62,1.33.14,1.08,1.6-.25,1.47-.85,5.43,3.9,6.04,4.75.6,6.7.06,7.43,3.11.1.43.14.95.12,1.51h21.32c-.06-3.42.64-7.32,3.26-10.55,6.39-7.95,16.7-29.47.23-38.54h-28.56Z" style="fill: #a6dae8;"/>
              <path d="m114.96,75.51s-1.36,2.82,6.12,6.98c7.48,4.17,15.98,8.93,18.36,11.31,2.38,2.38,9.71-4.32,7.48-12.98-2.23-8.66-24.82-17.82-31.96-5.31Z" style="fill: #fff;"/>
            </g>
          </g>
          <path d="m139.63,89.16l-12.59-8.7c-.35-.24-.77-.37-1.18-.37-.33,0-.66.08-.96.24-.68.36-1.11,1.07-1.11,1.84v15.92c0,.74.39,1.42,1.03,1.8.32.18.68.28,1.04.28s.71-.09,1.03-.28l12.59-7.22c.62-.35,1.01-1,1.04-1.71.03-.71-.31-1.39-.89-1.79Z" style="fill: #d93d15;"/>
          <g>
            <g>
              <path d="m170.91,143.33c0,.09.03.19.03.28l.13,10.39c0,.24-.02.52-.01.75-.03,1.14-.14,2.48-.34,3.95-.1.77-.22,1.57-.36,2.41-.92,5.44-2.61,11.85-4.41,16.26-.31.8-.65,1.51-.99,2.17-.44.89-.9,1.65-1.35,2.17-.46.56-.94.87-1.37.88l-37.17.45c-.34-.06-.73-.36-1.13-.85-.42-.51-.86-1.24-1.32-2.14-.31-.62-.64-1.33-.95-2.08-2.62-6.26-5.35-16.9-6.45-24.23-.12-.82-.23-1.59-.3-2.32-.05-.47-.1-.93-.13-1.33,0-.19-.02-.39-.03-.56h-.02s0-.08,0-.08c0-.17-.02-.36-.03-.54l.02-.06-.23-18.77c-.12-1.21.23-2.39,1-3.35.76-.96,1.85-1.55,3.07-1.69.15,0,.3-.03.45-.03,1.73-.02,3.24.93,4.03,2.36l.07,5.73c0,.34.11.67.27.95.18.38.48.68.86.89h.02c.33.17.67.29,1.04.29.28,0,.54-.07.75-.16.13-.04.23-.13.37-.2.02-.02.04-.02.06-.04.58-.4.96-1.02.95-1.78l-.51-42.23c-.03-2.54,2.01-4.63,4.55-4.66,2.52-.03,4.61,2.01,4.64,4.55l.51,42.23c0,.75.4,1.37.98,1.75.16.08.29.17.44.23.24.08.48.15.76.14.45,0,.84-.16,1.18-.4.3-.22.55-.48.72-.83.12-.28.23-.6.22-.95l-.17-14.33c-.03-2.28,1.8-4.15,4.06-4.18,2.29-.03,4.16,1.8,4.19,4.08l.17,14.33c.01.75.4,1.37.99,1.75.35.23.74.38,1.19.37.43,0,.82-.16,1.16-.4.58-.4.98-1.02.97-1.78l-.1-8.29c-.03-2.26,1.78-4.13,4.06-4.16,2.26-.03,4.13,1.8,4.16,4.06l.1,8.28c0,.84.51,1.54,1.2,1.88.31.14.63.25.97.25.05,0,.09-.02.14-.02.96-.05,1.71-.75,1.92-1.66.04-.17.08-.32.08-.49l-.07-5.72c-.02-1.33,1.04-2.42,2.38-2.44,1.31-.02,2.4,1.05,2.42,2.38l.08,6.89-.02-.02.12,9.66Z" style="fill: #fdc00f;"/>
              <path d="m169.81,197.42c.03,2.26-1.79,4.12-4.05,4.15l-43.3.53c-2.26.03-4.12-1.79-4.15-4.05l-.14-11.16c-.03-2.26,1.79-4.12,4.05-4.15l43.3-.52c2.26-.03,4.12,1.78,4.15,4.05l.14,11.16Z" style="fill: #fb671d;"/>
            </g>
            <path d="m134.47,91.93l.02,1.8c.01,1.64-1.3,2.98-2.94,2.99-1.64.01-2.98-1.3-2.99-2.94l-.02-1.8c-.01-1.64,1.3-2.98,2.94-2.99,1.64-.01,2.98,1.3,2.99,2.94Z" style="fill: #ff9e00;"/>
          </g>
        </g>
      </g>
    </g>
  </g>
</svg>