<?xml version="1.0" encoding="UTF-8"?>
<svg id="Layer_1" data-name="Layer 1" xmlns="http://www.w3.org/2000/svg" viewBox="0 0 256 193.22">
  <g>
    <path d="m0,159.49c9.42,4.42,20.46,3.79,30.59,1.41,10.13-2.39,19.81-6.42,29.97-8.65,21.91-4.82,45.64-.79,64.73,11.01v-38.74c-19.09-11.8-42.82-15.83-64.73-11.01-10.16,2.24-19.85,6.27-29.97,8.65C20.46,124.54,9.42,125.16,0,120.75v38.74Z" style="fill: #2e3a48;"/>
    <path d="m0,174.71c9.42,4.42,20.46,3.79,30.59,1.41,10.13-2.39,19.81-6.42,29.97-8.65,21.91-4.82,45.64-.79,64.73,11.01v-6.95c-19.09-11.8-42.82-15.83-64.73-11.01-10.16,2.24-19.85,6.27-29.97,8.65C20.46,171.56,9.42,172.18,0,167.77v6.95Z" style="fill: #212a33;"/>
    <path d="m0,189.46c9.42,4.42,20.46,3.79,30.59,1.41,10.13-2.39,19.81-6.42,29.97-8.65,21.91-4.82,45.64-.79,64.73,11.01v-6.95c-19.09-11.8-42.82-15.83-64.73-11.01-10.16,2.24-19.85,6.27-29.97,8.65S9.42,186.92,0,182.51v6.95Z" style="fill: #212a33;"/>
    <path d="m256,159.49c-9.42,4.42-20.46,3.79-30.59,1.41-10.13-2.39-19.81-6.42-29.97-8.65-21.91-4.82-45.64-.79-64.73,11.01v-38.74c19.09-11.8,42.82-15.83,64.73-11.01,10.16,2.24,19.85,6.27,29.97,8.65,10.13,2.39,21.17,3.01,30.59-1.41v38.74Z" style="fill: #2e3a48;"/>
    <path d="m256,174.71c-9.42,4.42-20.46,3.79-30.59,1.41-10.13-2.39-19.81-6.42-29.97-8.65-21.91-4.82-45.64-.79-64.73,11.01v-6.95c19.09-11.8,42.82-15.83,64.73-11.01,10.16,2.24,19.85,6.27,29.97,8.65,10.13,2.39,21.17,3.01,30.59-1.41v6.95Z" style="fill: #212a33;"/>
    <path d="m256,189.46c-9.42,4.42-20.46,3.79-30.59,1.41-10.13-2.39-19.81-6.42-29.97-8.65-21.91-4.82-45.64-.79-64.73,11.01v-6.95c19.09-11.8,42.82-15.83,64.73-11.01,10.16,2.24,19.85,6.27,29.97,8.65,10.13,2.39,21.17,3.01,30.59-1.41v6.95Z" style="fill: #212a33;"/>
  </g>
  <path d="m221.77,93.79c0,6.44-.64,12.72-1.89,18.8-2.12-.64-4.24-1.32-6.44-2.02-5.25-1.69-10.69-3.42-16.33-4.67-6.55-1.44-13.34-2.18-20.16-2.18-17.38,0-34.28,4.63-48.96,13.34-14.68-8.71-31.56-13.34-48.94-13.34-6.82,0-13.61.74-20.16,2.18-5.66,1.24-11.08,2.97-16.35,4.67-2.2.7-4.32,1.38-6.44,2.02-1.24-6.09-1.89-12.37-1.89-18.8C34.22,41.98,76.22,0,127.99,0s93.78,41.98,93.78,93.79Z" style="fill: #ffcd5c;"/>
</svg>