<?xml version="1.0" encoding="utf-8"?>
<!-- Generator: Adobe Illustrator 27.4.1, SVG Export Plug-In . SVG Version: 6.00 Build 0)  -->
<svg version="1.1" id="Layer_1" xmlns="http://www.w3.org/2000/svg" xmlns:xlink="http://www.w3.org/1999/xlink" x="0px" y="0px"
	 viewBox="0 0 500 400" style="enable-background:new 0 0 500 400;" xml:space="preserve">
<style type="text/css">
	.st0{fill:#F2DE79;}
	.st1{fill:#FBC9DC;}
	.st2{fill:#EC899A;}
	.st3{fill:url(#SVGID_1_);}
</style>
<g>
	<g id="Layer_1_00000161611912783061655210000014179980566964483751_">
		<rect x="-8" y="-7" class="st0" width="512" height="411.9"/>
		<g>
			<g>
				<path class="st1" d="M364.8,151.8c0.7,1.6,1.3,3.3,1.8,5c9.8,31.1-6.8,64-37.1,73.6c-23.7,7.5-48.8-1.6-63.3-20.8
					c-2.2-0.7-4.4-1.5-6.5-2.6c-4,4.2-9,7.5-14.9,9.3c-18.9,6-39.2-4.9-45.4-24.3c-0.5-1.6-0.9-3.2-1.2-4.8
					c-14.8,2.9-29.8-6.1-34.6-21.1l-0.1-0.5c-17.1,2.4-34.1-8.2-39.6-25.6c-6.1-19.4,4.3-40,23.2-46c2.4-0.8,4.9-1.2,7.3-1.5
					c3.8-12.6,13.4-23.1,26.6-27.3c10.7-3.4,21.9-2,31.2,2.9c6.1-7.8,14.4-13.8,24.6-17c16.4-5.2,33.6-1.5,46.2,8.3l0.2-0.1
					c18.9-6,39.3,4.9,45.4,24.3c0.5,1.6,0.9,3.1,1.1,4.7c16,4.3,29.6,16.4,34.9,33.3C368,131.8,367.8,142.3,364.8,151.8L364.8,151.8
					z"/>
				<path class="st2" d="M369,155.9c-0.4-1.4-1-2.9-1.5-4.3c3-10.1,2.9-20.7-0.3-30.8C361.9,103.9,348.8,91,332,86
					c-0.3-1.1-0.6-2.2-0.9-3.2c-5.3-16.8-20.4-28-37.6-28c-3.4,0-6.8,0.4-10.2,1.4c-13.5-10-31.6-13-47.7-7.9
					c-9.6,3-18,8.6-24.5,16.2c-9.8-4.5-21.1-5.3-31.3-2c-13.1,4.1-23.4,14.3-28,27.4c-2,0.3-4.1,0.8-6,1.4c-9.9,3.1-18,10-22.8,19.4
					c-4.7,9.4-5.6,20.1-2.4,30.2c5.3,16.8,20.4,28,37.6,28c0.9,0,1.9,0,2.8-0.1c4.9,13.2,17.2,21.9,31.2,21.9c1.1,0,2.1-0.1,3.2-0.1
					c0.2,0.8,0.4,1.6,0.7,2.4c5.3,16.8,20.4,28,37.6,28c1.5,0,3.1-0.1,4.6-0.3c2.3-0.3,4.6-0.8,6.9-1.5c0.6-0.2,1.1-0.4,1.7-0.6
					c4.8-1.8,9.2-4.5,12.9-8c1.4,0.6,2.7,1.1,4.1,1.5c7.4,9.5,17.4,16.6,28.4,20.5c1,0.4,1.9,0.6,2.8,0.9c5.4,1.6,11.1,2.5,16.8,2.5
					c6,0,12-0.9,17.8-2.8c15.4-4.9,28-15.6,35.3-30.2C372.7,188.4,374,171.7,369,155.9L369,155.9z M275.1,215.3
					c-2.5-2.2-4.8-4.8-6.9-7.5l-0.4-0.5l-0.2-0.3l-0.9-0.3c-2.1-0.6-4.1-1.4-6.1-2.4l-1.9-0.9l-1.5,1.6c-3.8,4-8.4,6.9-13.7,8.5
					c-3.1,1-6.4,1.5-9.7,1.5c-14.6,0-27.5-9.6-32-23.9c-0.5-1.5-0.9-3-1.1-4.4l-0.5-3l-3,0.6c-1.6,0.3-3.3,0.5-5,0.5
					c-12,0-22.5-7.9-26.2-19.6l-0.9-2.9l-2.4,0.3c-1.4,0.2-2.9,0.3-4.4,0.3c-14.6,0-27.4-9.6-32-23.9c-2.7-8.7-2-17.8,2-25.8
					c4-8,10.9-13.8,19.3-16.5c2.1-0.7,4.4-1.1,6.7-1.4l2-0.2l0.6-1.9c3.6-12.1,12.9-21.5,24.7-25.3c9.5-3,20-2,28.9,2.7l2.2,1.2
					l1.5-1.9c5.9-7.6,13.9-13.2,23.1-16c14.8-4.7,31.4-1.7,43.5,7.8l1.4,0.9l1.5-0.5c3.2-1,6.4-1.5,9.7-1.5c14.6,0,27.5,9.6,32,23.9
					c0.4,1.4,0.8,2.8,1.1,4.3l0.3,1.8l1.8,0.5c15.7,4.2,28,15.9,32.9,31.4c2.9,9.3,2.9,19.1,0,28.3l-0.3,1l0.2,0.3l0.3,0.7
					c0.6,1.5,1.2,3.1,1.8,4.7c0.3,0.9,0.5,1.7,0.7,2.5c3.6,13.5,2.2,27.7-4,40.1c-6.6,13.2-18,22.9-31.9,27.2
					c-5.2,1.6-10.6,2.5-16.1,2.5C298.5,230,285.2,224.7,275.1,215.3L275.1,215.3z"/>
				<path class="st2" d="M164.2,163c-2.8-6.3-2.6-9.5-0.5-16c3.6-10.9,22.3-20.2,31.5-11.5c1.4,1.3,4.1-1.1,4.7-2.3
					c4.5-10,8-19,19.2-22.8c7.2-2.5,17.6-4.9,24.6,0.7c3.4,2.7,5.8-1.3,4.6-2.3c-10.1-8.6-25.1-5.9-32.4-2.4
					c-11,5.1-15.1,15.8-20.7,28.5c1.6-0.8,3.1-1.5,4.7-2.3c-8.9-8.4-21.6-4.9-30.3,0.9c-11.7,7.6-14.8,21.4-8.9,34.5
					c0.6,1.4,5.4-1.3,4.7-3L164.2,163L164.2,163z"/>
				<path class="st2" d="M336.3,101.1c-9.8-1.3-16.8,1.5-22.6,8.1c-9.3,10.6-9,21.5-11.2,34.4c-9.8-2.7-18.7-2.3-28.5,1.5
					c-9.6,3.8-11.9,10.9-15.9,18.8c-8.8-9.8-22.4-9.9-34.5-6.1c-15,4.6-22.3,17.5-28.5,31.2c-1.4,3,3.7,1.6,4.5-0.2
					c4.8-10.5,9.2-20,19.9-25.7c11.8-6.3,28-4.9,36.1,6.7c1.2,1.7,3.9-0.5,4.6-1.6c4.6-7.7,4.8-14.7,14.1-19.5c9-4.6,19-3,28.2,0
					c1.5,0.5,3.7-1.2,4-2.6c2.9-13.5,0.7-41.2,26.5-40.9C341.8,105.2,338.8,101.4,336.3,101.1L336.3,101.1z"/>
				<path class="st2" d="M264.1,210.8c11.5,6.8,25.3,6.9,38.2,4.8c15-2.5,14.8-16.9,19.1-20.9c3.7-3.4,13.3-2,17.8-3
					c4.9-1.1,8.9-4.1,12.9-7c12.5-9.2,10.8-24.6,15.1-37.5c0.5-1.4-4.1-0.1-4.7,1.5c-4.7,13.7-6.4,41.6-32.7,40.6
					c-3.4-0.1-7.3-1.1-10.2,1.2c-4,3.2-5.6,8.7-7.2,13.5c-5.5,16.7-33.9,9.5-44.2,3.4C266.9,206.5,262.6,210,264.1,210.8
					L264.1,210.8L264.1,210.8z"/>
				<path class="st2" d="M227.8,126.5c14.5,11.1,34.6,2.8,45.4-9.3c7.4-8.2,7.4-19.4,3.4-29.2c-5-12.3-14.9-14.1-25.3-9.9
					c-4.4,1.8-2.5,4.3,0,3.5c8.1-2.7,13.6-3.2,19.4,4.2c5,6.4,6.8,17.2,2.9,24.1c-8,14.2-28.4,23.5-41.1,13.7
					C231.2,122.4,227.2,126,227.8,126.5L227.8,126.5L227.8,126.5z"/>
				<path class="st2" d="M209.6,69.6c-3.6,4.5-4.6,9.7-0.8,14.5c3.4,4.3,9.6,6.1,14.7,5.4c1.3-0.2,2.5-0.9,3.4-1.8
					c0.3-0.3,1.4-1.9,0.1-1.7c-9.3,1.2-19.8-7.5-12.1-17C216.6,66.8,211.6,67.4,209.6,69.6L209.6,69.6L209.6,69.6z"/>
				<path class="st2" d="M154.8,94.9c8.1-3,17,7.7,14.1,15.5c-1.2,3.2,3.8,1.9,4.6-0.1c4.4-11.8-7.9-23.1-19.2-18.9
					C151.6,92.3,151.3,96.2,154.8,94.9L154.8,94.9z"/>
				<path class="st2" d="M334.3,142.1c-1.8-3.8-7.2-2.5-4.7,3c11.1,24.9-24.8,43.7-41.1,26.9c-1.3-1.3-4.4-1.6-4.8,2.7
					c-2,24.1-44.8,29.6-52.9,6.5c-1.4-4-7.1-3.1-4.7,3c10.3,26,53,17.1,61.2-6.3C308,191.6,347.9,170.1,334.3,142.1L334.3,142.1z"/>
				<path class="st2" d="M227.6,126.2c0.6,5.1,1.5,17.4-5.8,19c-6.6,1.4-4.4,4.6-1.6,4c11.8-2.4,13.4-15.1,12.2-25.5
					C232.2,122.1,226.1,120.5,227.6,126.2L227.6,126.2L227.6,126.2z"/>
				<path class="st2" d="M281.8,62.2c9.6,7.8,15.8,17.1,15.7,29.9c0,3.1,5,1.3,5-1c0.1-13.9-6.2-24.1-16.7-32.7
					C283.9,56.9,279.6,60.4,281.8,62.2L281.8,62.2z"/>
				<g>
					<path class="st1" d="M295.3,253.2c-12.9,2.6-24.2-1.7-31-14.4c-4.3-8-9-16.8-17.2-20.2c4.8-1.8,9.2-4.5,12.9-8
						c1.4,0.6,2.7,1.1,4.1,1.5c7.4,9.5,17.4,16.6,28.4,20.5C286.6,240.6,288.8,246.9,295.3,253.2L295.3,253.2z"/>
					<path class="st2" d="M298.8,254.9c-9.9,3.2-25.2,4.9-33.2-3.9c-9-9.9-11.6-28.4-27-30.4c-0.1,0-0.2-0.1-0.3-0.1
						c-1.5-0.2,0.8-2.4,2.5-3.2c0.4-0.2,0.8-0.3,1-0.3c0.1,0,0.1,0,0.2,0c1.9,0.2,3.6,0.7,5.2,1.4c8.2,3.5,13,12.2,17.2,20.2
						c6.8,12.7,18,17,31,14.4c-6.5-6.3-8.7-12.6-2.7-20.7c0,0,0-0.1,0.1-0.1c0.5-0.6,2.4-1.6,3.5-1.9h0c0.5-0.1,0.9-0.1,0.9,0.2
						c0,0.1-0.1,0.4-0.4,0.7c-0.5,0.6-0.9,1.3-1.3,1.9c-4.3,7.4,0.3,13,6.4,18.4C302.8,252.7,299.2,254.8,298.8,254.9L298.8,254.9z"
						/>
				</g>
			</g>
			
				<linearGradient id="SVGID_1_" gradientUnits="userSpaceOnUse" x1="399.1227" y1="110.3726" x2="164.5527" y2="354.9126" gradientTransform="matrix(1 0 0 -1 0 400)">
				<stop  offset="0" style="stop-color:#FFFFFF;stop-opacity:0"/>
				<stop  offset="0.47" style="stop-color:#A3894A;stop-opacity:0.5"/>
			</linearGradient>
			<path class="st3" d="M445.8,191.3c-14.7,69.7-65.6,126.1-132.2,148.4l-180.1-180c6.9,5.8,15.6,9.1,25,9.1c0.9,0,1.9,0,2.8-0.1
				c4.9,13.2,17.2,21.9,31.2,21.9c0.9,0,1.8,0,2.8-0.1c0,0,0,0,0,0c0.1,0.1,0.2,0.2,0.4,0.2c0.2,0.7,0.4,1.4,0.6,2.2
				c5.3,16.8,20.4,28,37.6,28c1.6,0,3.1-0.1,4.6-0.3c15.4,2,18.1,20.5,27,30.3c8,8.8,23.4,7.2,33.3,3.9c0.4-0.1,3.9-2.2,3-3
				c-6.2-5.4-10.7-11-6.4-18.4c5.4,1.6,11.1,2.5,16.8,2.5s12-0.9,17.8-2.8c15.4-4.9,28-15.6,35.3-30.2c7.4-14.6,8.7-31.3,3.7-47.1
				c-0.5-1.4-1-2.9-1.6-4.3c3-10.1,2.9-20.7-0.3-30.8c-2-6.2-5-11.8-8.8-16.8L445.8,191.3L445.8,191.3z"/>
		</g>
	</g>
</g>
</svg>
