<?xml version="1.0" encoding="UTF-8"?>
<svg xmlns="http://www.w3.org/2000/svg" xmlns:xlink="http://www.w3.org/1999/xlink" viewBox="0 0 500 400">
  <defs>
    <linearGradient id="linear-gradient" x1="142.86" y1="95.23" x2="385.15" y2="347.53" gradientUnits="userSpaceOnUse">
      <stop offset="0" stop-color="#59b8d2"/>
      <stop offset="1" stop-color="#fff"/>
    </linearGradient>
  </defs>
  <g style="isolation: isolate;">
    <g id="Layer_1" data-name="Layer 1">
      <rect x="-7.96" y="-7" width="512" height="411.85" style="fill: #a4d8e6;"/>
      <g>
        <path d="m449.34,216.24c-8.23,102.9-94.34,183.76-199.35,183.76h-.14l-123.91-124.24,23.96-10.62-47.96-44.87,53.44-22.6,7.49-7.72,4.59-4.77,3.28-3.32-1.73-15.77-5.85-7.39-31.17-26.53-1.59-24.94,201.07-1.12,8.89,1.5,108.98,108.66Z" style="fill: url(#linear-gradient); mix-blend-mode: multiply; opacity: .5;"/>
        <g>
          <path d="m386.54,246.65l-5.51-.64c.5-4.4.7-17.08-4.32-22.81-1.75-1.99-3.98-2.99-6.82-3.03-13.49-.24-20.7-2.07-24.1-6.15-3.03-3.62-2.3-8.01-1.61-12.24.62-3.84,1.27-7.8-.75-11.47-4.19-11.14-26.72-7.99-35.05-5.86l-1.38-5.37c1.42-.38,34.88-8.7,41.47,8.92,2.78,4.99,1.9,10.36,1.19,14.68-.62,3.79-.93,6.2.4,7.79,2.14,2.56,8.84,3.96,19.93,4.15,4.43.08,8.1,1.73,10.89,4.94,7.68,8.76,5.75,26.36,5.66,27.1Z" style="fill: #14b0bf;"/>
          <path d="m400.44,283.06c0,6.12-4.97,11.1-11.1,11.1h-11.1c-6.14,0-11.11-4.98-11.11-11.1v-28.28c0-6.14,4.98-11.1,11.11-11.1h11.1c6.13,0,11.1,4.96,11.1,11.1v28.28Z" style="fill: #284962;"/>
          <path d="m387.94,257.65c0,4.51-1.85,8.15-4.16,8.15s-4.16-3.65-4.16-8.15,1.87-8.16,4.16-8.16,4.16,3.65,4.16,8.16Z" style="fill: #fff;"/>
          <g>
            <path d="m144.35,131.81h-14.75v-25.6h14.75v4.45h-9.32v5.63h8.67v4.45h-8.67v6.6h9.32v4.48Z" style="fill: #284962;"/>
            <path d="m147.54,124.38v-4.38h9.4v4.38h-9.4Z" style="fill: #284962;"/>
            <path d="m161.24,131.81v-25.6h5.43v21.13h10.38v4.48h-15.81Z" style="fill: #284962;"/>
            <path d="m196.24,131.81h-14.75v-25.6h14.75v4.45h-9.32v5.63h8.67v4.45h-8.67v6.6h9.32v4.48Z" style="fill: #284962;"/>
            <path d="m217.26,131.81l-1.86-6.1h-9.34l-1.85,6.1h-5.85l9.04-25.71h6.64l9.07,25.71h-5.85Zm-3.16-10.64c-1.71-5.52-2.68-8.65-2.89-9.37-.21-.73-.37-1.3-.47-1.72-.39,1.5-1.49,5.2-3.31,11.09h6.67Z" style="fill: #284962;"/>
            <path d="m231.76,121.98v9.83h-5.42v-25.6h7.46c3.48,0,6.06.63,7.73,1.9,1.66,1.27,2.5,3.19,2.5,5.77,0,1.51-.42,2.85-1.25,4.02-.82,1.17-2,2.09-3.51,2.76,3.85,5.76,6.36,9.48,7.53,11.15h-6.02l-6.11-9.83h-2.89Zm0-4.41h1.75c1.72,0,2.98-.28,3.8-.85.82-.57,1.23-1.47,1.23-2.7s-.42-2.08-1.25-2.59c-.84-.52-2.12-.78-3.88-.78h-1.65v6.92Z" style="fill: #284962;"/>
            <path d="m272.73,131.81h-6.9l-11.14-19.37h-.16c.22,3.43.33,5.87.33,7.32v12.05h-4.85v-25.6h6.85l11.13,19.18h.12c-.17-3.33-.26-5.68-.26-7.06v-12.12h4.88v25.6Z" style="fill: #284962;"/>
            <path d="m279.18,131.81v-25.6h5.43v25.6h-5.43Z" style="fill: #284962;"/>
            <path d="m313.76,131.81h-6.9l-11.14-19.37h-.16c.22,3.43.33,5.87.33,7.32v12.05h-4.85v-25.6h6.85l11.12,19.18h.12c-.17-3.33-.26-5.68-.26-7.06v-12.12h4.89v25.6Z" style="fill: #284962;"/>
            <path d="m329.93,117.43h10.15v13.28c-1.65.53-3.19.91-4.65,1.13-1.46.22-2.93.32-4.46.32-3.87,0-6.82-1.13-8.85-3.4-2.04-2.27-3.06-5.53-3.06-9.78s1.18-7.36,3.55-9.67c2.37-2.31,5.64-3.46,9.83-3.46,2.63,0,5.16.52,7.6,1.58l-1.8,4.34c-1.87-.93-3.81-1.4-5.84-1.4-2.34,0-4.23.79-5.63,2.36-1.42,1.58-2.12,3.7-2.12,6.36s.57,4.91,1.71,6.37c1.13,1.47,2.79,2.2,4.96,2.2,1.14,0,2.28-.12,3.45-.35v-5.34h-4.85v-4.52Z" style="fill: #284962;"/>
          </g>
          <g>
            <g>
              <path d="m153.68,145.58c0-3.85,3.12-6.98,6.98-6.98h166.4c3.86,0,6.98,3.13,6.98,6.98v14.55c0,3.86-3.12,6.99-6.98,6.99h-166.4c-3.86,0-6.98-3.13-6.98-6.99v-14.55Z" style="fill: #d93d15;"/>
              <rect x="315.69" y="138.6" width="4.91" height="28.52" style="fill: #ffb700;"/>
              <rect x="307.59" y="138.6" width="4.91" height="28.52" style="fill: #ffb700;"/>
              <rect x="173.61" y="138.6" width="4.91" height="28.52" style="fill: #ffb700;"/>
              <rect x="165.5" y="138.6" width="4.91" height="28.52" style="fill: #ffb700;"/>
              <rect x="201.52" y="147.3" width="84.69" height="11.1" style="fill: #ffb700;"/>
            </g>
            <g>
              <path d="m133.2,174.09c0-3.86,3.13-6.98,6.98-6.98h172.34c3.85,0,6.98,3.12,6.98,6.98v11.63c0,3.86-3.13,6.99-6.98,6.99h-172.34c-3.86,0-6.98-3.13-6.98-6.99v-11.63Z" style="fill: #f99a24;"/>
              <g>
                <rect x="307.59" y="172.05" width="4.91" height="15.71" style="fill: #ffb700;"/>
                <rect x="298.3" y="172.05" width="4.92" height="15.71" style="fill: #ffb700;"/>
                <rect x="289.01" y="172.05" width="4.91" height="15.71" style="fill: #ffb700;"/>
              </g>
              <g>
                <rect x="163.05" y="172.05" width="4.91" height="15.71" style="fill: #ffb700;"/>
                <rect x="153.76" y="172.05" width="4.91" height="15.71" style="fill: #ffb700;"/>
                <rect x="144.47" y="172.05" width="4.9" height="15.71" style="fill: #ffb700;"/>
              </g>
              <path d="m184.23,184.27v-8.73h91.34v8.73h-91.34Zm-3.49,3.49h98.32v-15.71h-98.32v15.71h0Z" style="fill: #ffb700;"/>
            </g>
            <g>
              <path d="m99.58,199.69c0-3.85,3.13-6.98,6.98-6.98h182.11c3.85,0,6.98,3.13,6.98,6.98v16.29c0,3.86-3.13,6.99-6.98,6.99H106.56c-3.86,0-6.98-3.13-6.98-6.99v-16.29Z" style="fill: #284962;"/>
              <rect x="247.35" y="200.56" width="41.65" height="14.55" style="fill: #d93d15;"/>
              <rect x="180.68" y="200.56" width="41.65" height="14.55" style="fill: #d93d15;"/>
              <rect x="107.72" y="200.56" width="41.65" height="14.55" style="fill: #d93d15;"/>
            </g>
            <g>
              <path d="m153.68,229.94c0-3.85,3.12-6.97,6.98-6.97h175.71c3.86,0,6.99,3.12,6.99,6.97v25.03c0,3.85-3.13,6.98-6.99,6.98h-175.71c-3.86,0-6.98-3.13-6.98-6.98v-25.03Z" style="fill: #ffb700;"/>
              <path d="m336.38,261.95h-10.47v-38.99h10.47c3.84,0,6.98,3.14,6.98,6.98v25.03c0,3.84-3.14,6.98-6.98,6.98Z" style="fill: #d93d15;"/>
              <path d="m157.81,261.95h10.47v-38.99h-10.47c-3.84,0-6.99,3.14-6.99,6.98v25.03c0,3.84,3.14,6.98,6.99,6.98Z" style="fill: #d93d15;"/>
              <path d="m176.06,237.65c0-3.85,3.12-6.98,6.98-6.98h128.12c3.86,0,6.98,3.13,6.98,6.98v9.6c0,3.87-3.12,6.98-6.98,6.98h-128.12c-3.86,0-6.98-3.11-6.98-6.98v-9.6Z" style="fill: #d93d15;"/>
              <rect x="298.3" y="235.47" width="9.29" height="13.97" style="fill: #ffb700;"/>
              <rect x="188.32" y="235.47" width="9.29" height="13.97" style="fill: #ffb700;"/>
            </g>
            <g>
              <path d="m123.81,268.93c0-3.85,3.12-6.98,6.97-6.98h165.45c3.85,0,6.98,3.13,6.98,6.98v2.33c0,3.86-3.13,6.98-6.98,6.98h-165.45c-3.85,0-6.97-3.13-6.97-6.98v-2.33Z" style="fill: #14b0bf;"/>
              <path d="m284.88,278.25v-16.31h11.35c3.83,0,6.98,3.14,6.98,6.98v2.34c0,3.84-3.15,6.99-6.98,6.99h-11.35Z" style="fill: #284962;"/>
              <path d="m142.12,278.24v-16.31h-11.35c-3.83,0-6.97,3.14-6.97,6.98v2.34c0,3.83,3.13,6.98,6.97,6.98h11.35Z" style="fill: #284962;"/>
              <g>
                <rect x="255.08" y="266.89" width="25.07" height="6.98" style="fill: #284962;"/>
                <rect x="219" y="266.89" width="25.07" height="6.98" style="fill: #284962;"/>
                <rect x="182.93" y="266.89" width="25.07" height="6.98" style="fill: #284962;"/>
                <rect x="146.85" y="266.89" width="25.07" height="6.98" style="fill: #284962;"/>
              </g>
            </g>
          </g>
        </g>
      </g>
    </g>
  </g>
</svg>