<?xml version="1.0" encoding="UTF-8"?>
<svg xmlns="http://www.w3.org/2000/svg" xmlns:xlink="http://www.w3.org/1999/xlink" viewBox="0 0 500 400">
  <defs>
    <linearGradient id="linear-gradient" x1="232.09" y1="179.62" x2="389.39" y2="343.42" gradientUnits="userSpaceOnUse">
      <stop offset="0" stop-color="#d99c00"/>
      <stop offset="1" stop-color="#fff"/>
    </linearGradient>
  </defs>
  <g style="isolation: isolate;">
    <g id="Layer_1" data-name="Layer 1">
      <rect x="-7.96" y="-7" width="512" height="411.85" style="fill: #f4d27a;"/>
      <g>
        <path d="m450,199.98c0,110.47-89.55,200.02-199.98,200.02-8.33,0-16.56-.52-24.61-1.5l-108.46-108.31L384.73,111.12l63.68,63.31c1.03,8.38,1.59,16.89,1.59,25.55Z" style="fill: url(#linear-gradient); mix-blend-mode: multiply; opacity: .5;"/>
        <g>
          <g>
            <path d="m386.31,285.19c0,3.18-2.59,5.77-5.78,5.77h-106.25c-3.21,0-5.79-2.59-5.79-5.77V114.82c0-3.2,2.59-5.78,5.79-5.78h106.25c3.2,0,5.78,2.59,5.78,5.78v170.38Z" style="fill: #14b0bf;"/>
            <rect x="282.05" y="123.03" width="90.69" height="149.04" style="fill: #fff;"/>
            <g>
              <path d="m332.24,281.41c0,2.81-2.28,5.09-5.1,5.09h0c-2.81,0-5.1-2.28-5.1-5.09h0c0-2.82,2.28-5.11,5.1-5.11h0c2.82,0,5.1,2.28,5.1,5.11h0Z" style="fill: #fff;"/>
              <path d="m356.23,281.05c0,1.14-.92,2.05-2.05,2.05h-11.91c-1.12,0-2.04-.9-2.04-2.05h0c0-1.11.91-2.04,2.04-2.04h11.91c1.12,0,2.05.92,2.05,2.04h0Z" style="fill: #fff;"/>
              <path d="m314.56,281.05c0,1.14-.91,2.05-2.04,2.05h-11.9c-1.14,0-2.04-.9-2.04-2.05h0c0-1.11.9-2.04,2.04-2.04h11.9c1.12,0,2.04.92,2.04,2.04h0Z" style="fill: #fff;"/>
            </g>
          </g>
          <path d="m370.06,179.21c0-19.6-19.21-35.48-42.91-35.48s-42.91,15.88-42.91,35.48,19.21,35.48,42.91,35.48c3.02,0,5.96-.26,8.8-.75,4.65,12.46,8.04,29.22,8.04,29.22l3.73-32.81c13.31-6.02,22.34-17.71,22.34-31.14Z" style="fill: #ffb700;"/>
          <g>
            <path d="m119.47,290.96c-3.19,0-5.78-2.59-5.78-5.78v-106.25c0-3.2,2.59-5.79,5.78-5.79h170.38c3.19,0,5.78,2.59,5.78,5.79v106.25c0,3.19-2.59,5.78-5.78,5.78H119.47Z" style="fill: #284962;"/>
            <rect x="132.58" y="186.71" width="149.04" height="90.67" style="fill: #fff;"/>
            <g>
              <path d="m123.25,236.89c-2.82,0-5.1-2.28-5.1-5.1h0c0-2.82,2.28-5.1,5.1-5.1h0c2.81,0,5.1,2.28,5.1,5.1h0c0,2.82-2.28,5.1-5.1,5.1h0Z" style="fill: #fff;"/>
              <path d="m123.59,260.88c-1.12,0-2.04-.92-2.04-2.05v-11.91c0-1.12.91-2.04,2.04-2.04h0c1.13,0,2.04.91,2.04,2.04v11.91c0,1.12-.9,2.05-2.04,2.05h0Z" style="fill: #fff;"/>
              <path d="m123.59,219.2c-1.12,0-2.04-.9-2.04-2.05v-11.9c0-1.12.91-2.04,2.04-2.04h0c1.13,0,2.04.91,2.04,2.04v11.9c0,1.14-.9,2.05-2.04,2.05h0Z" style="fill: #fff;"/>
            </g>
          </g>
          <path d="m215.67,199.71c-23.08,0-41.78,13.16-41.78,29.38,0,5.57,2.25,10.76,6.08,15.2l-20.67,19.57,33.92-10.03c6.49,2.91,14.18,4.62,22.45,4.62,23.08,0,41.79-13.15,41.79-29.36s-18.71-29.38-41.79-29.38Z" style="fill: #d93d15;"/>
          <path d="m210.73,239.63v-1.77c0-2.03.37-3.72,1.11-5.07.74-1.34,2.03-2.74,3.88-4.19,2.2-1.73,3.62-3.08,4.26-4.04.64-.96.95-2.1.95-3.44,0-1.55-.51-2.74-1.54-3.57-1.04-.83-2.53-1.24-4.46-1.24-1.75,0-3.39.25-4.89.74-1.49.5-2.95,1.11-4.37,1.81l-2.33-4.88c3.75-2.08,7.77-3.13,12.05-3.13,3.61,0,6.49.89,8.61,2.65,2.13,1.78,3.19,4.22,3.19,7.35,0,1.39-.2,2.61-.61,3.7-.4,1.08-1.01,2.11-1.84,3.09-.82.98-2.24,2.25-4.26,3.82-1.71,1.34-2.86,2.47-3.45,3.35-.58.88-.88,2.07-.88,3.56v1.25h-5.43Zm-1.13,8.84c0-2.79,1.36-4.19,4.07-4.19,1.33,0,2.36.37,3.05,1.09.7.74,1.05,1.76,1.05,3.1s-.36,2.35-1.07,3.11c-.7.78-1.71,1.16-3.03,1.16s-2.31-.37-3.02-1.13c-.69-.74-1.05-1.78-1.05-3.13Z" style="fill: #fff;"/>
          <path d="m323.06,195.76c0-1.36.36-2.39,1.07-3.1.72-.7,1.74-1.06,3.06-1.06s2.3.37,3.01,1.11c.69.73,1.04,1.75,1.04,3.05s-.36,2.34-1.06,3.1c-.7.76-1.71,1.14-2.99,1.14s-2.32-.37-3.04-1.1c-.73-.74-1.09-1.79-1.09-3.14Zm6.55-8.78h-4.79l-1.43-28.04h7.62l-1.4,28.04Z" style="fill: #fff;"/>
        </g>
      </g>
    </g>
  </g>
</svg>