<?xml version="1.0" encoding="UTF-8"?>
<svg xmlns="http://www.w3.org/2000/svg" xmlns:xlink="http://www.w3.org/1999/xlink" viewBox="0 0 500 400">
  <defs>
    <linearGradient id="linear-gradient" x1="221.98" y1="190.29" x2="378.79" y2="353.59" gradientUnits="userSpaceOnUse">
      <stop offset="0" stop-color="#bd5600"/>
      <stop offset="1" stop-color="#fff"/>
    </linearGradient>
  </defs>
  <g style="isolation: isolate;">
    <g id="Layer_1" data-name="Layer 1">
      <rect x="-7.96" y="-7" width="512" height="411.85" style="fill: #f9a37d;"/>
      <g>
        <path d="m449.09,219.07c-9.64,101.53-95.08,180.93-199.09,180.93-7.81,0-15.58-.47-23.16-1.31l-108.65-108.73,221.96-179.02,108.93,108.13Z" style="fill: url(#linear-gradient); mix-blend-mode: multiply; opacity: .4;"/>
        <g>
          <g>
            <path d="m336.46,108.41h-172.44c-2.78,0-5.03,2.25-5.03,5.04v103.45c0,2.78,2.26,5.04,5.03,5.04h69.01v8.22h-34.67c-2.27,0-4.1,1.84-4.1,4.11v3.08c0,2.27,1.84,4.11,4.1,4.11h103.76c2.28,0,4.11-1.84,4.11-4.11v-3.08c0-2.27-1.84-4.11-4.11-4.11h-34.67v-8.22h69.01c2.78,0,5.04-2.26,5.04-5.04v-103.45c0-2.78-2.26-5.04-5.04-5.04Z" style="fill: #14b0bf;"/>
            <rect x="171.95" y="117.25" width="156.85" height="96.17" style="fill: #d5ecfc;"/>
          </g>
          <g>
            <path d="m120.32,290.73c-2.24,0-4.04-1.82-4.04-4.06v-74.47c0-2.24,1.8-4.05,4.04-4.05h119.41c2.24,0,4.06,1.81,4.06,4.05v74.47c0,2.24-1.82,4.06-4.06,4.06h-119.41Z" style="fill: #284962;"/>
            <rect x="129.51" y="217.66" width="104.45" height="63.55" style="fill: #fff;"/>
            <g>
              <path d="m122.98,252.83c-1.98,0-3.58-1.6-3.58-3.57h0c0-1.98,1.6-3.57,3.58-3.57h0c1.97,0,3.57,1.59,3.57,3.57h0c0,1.97-1.61,3.57-3.57,3.57h0Z" style="fill: #fff;"/>
              <path d="m123.2,269.64c-.79,0-1.43-.64-1.43-1.43v-8.35c0-.79.64-1.43,1.43-1.43h0c.79,0,1.43.64,1.43,1.43v8.35c0,.79-.64,1.43-1.43,1.43h0Z" style="fill: #fff;"/>
              <path d="m123.2,240.44c-.79,0-1.43-.63-1.43-1.43v-8.34c0-.79.64-1.43,1.43-1.43h0c.79,0,1.43.64,1.43,1.43v8.34c0,.79-.64,1.43-1.43,1.43h0Z" style="fill: #fff;"/>
            </g>
          </g>
          <g>
            <path d="m190.93,238.18c0,5.09-4.11,9.19-9.19,9.19s-9.19-4.11-9.19-9.19,4.11-9.19,9.19-9.19,9.19,4.12,9.19,9.19Z" style="fill: #ffb700;"/>
            <path d="m197.98,277.24h-32.49c1.45-15.84,8.17-27.82,16.24-27.82s14.79,11.98,16.25,27.82Z" style="fill: #ffb700;"/>
            <path d="m194.43,248.16l-2.13-1.79c2.03-2.41,3.15-5.49,3.15-8.65,0-7.42-6.04-13.47-13.47-13.47s-13.47,6.04-13.47,13.47c0,2.84.88,5.56,2.52,7.85l-2.26,1.62c-1.99-2.77-3.04-6.05-3.04-9.47,0-8.96,7.29-16.24,16.25-16.24s16.24,7.29,16.24,16.24c0,3.82-1.33,7.52-3.79,10.44Z" style="fill: #14b0bf;"/>
            <path d="m193.85,243.82c-1.57,1.01-3.45,1.59-5.46,1.53-2.25-.05-4.4-.91-6.08-2.4l1.08-1.22c1.39,1.23,3.18,1.94,5.04,1.99,1.79.05,3.45-.5,4.81-1.46l.61,1.57Z" style="fill: #14b0bf;"/>
            <path d="m182.48,241.34c-.53-.13-1.06.2-1.19.73l-.3,1.27c-.14.53.19,1.06.72,1.18l5.13,1.23c.52.13,1.07-.2,1.19-.73l.31-1.26c.13-.53-.2-1.06-.73-1.19l-5.13-1.23Z" style="fill: #285a73;"/>
            <g>
              <path d="m168.8,239.72c-.42-.66-1.13-1.06-1.93-1.06-.42,0-.83.12-1.2.36l-1.55.97c-.51.33-.88.83-1.01,1.42-.14.59-.04,1.19.29,1.71l3.96,6.3c.42.66,1.13,1.06,1.92,1.06.43,0,.85-.12,1.22-.35l1.54-.98c.51-.32.87-.82,1.01-1.41.14-.59.04-1.21-.29-1.71l-3.96-6.31Z" style="fill: #285a73;"/>
              <path d="m200.37,241.4c-.14-.59-.49-1.09-1.01-1.42l-1.54-.97c-1.03-.65-2.49-.32-3.13.71l-3.96,6.31c-.33.51-.43,1.12-.29,1.7.13.59.49,1.1,1,1.42l1.56.98c.36.22.78.34,1.2.34.8,0,1.51-.4,1.93-1.06l3.96-6.3c.32-.52.43-1.12.29-1.71Z" style="fill: #285a73;"/>
            </g>
          </g>
          <g>
            <path d="m379.7,208.99c2.23,0,4.04,1.81,4.04,4.06v74.47c0,2.24-1.81,4.06-4.04,4.06h-119.41c-2.24,0-4.06-1.81-4.06-4.06v-74.47c0-2.24,1.82-4.06,4.06-4.06h119.41Z" style="fill: #284962;"/>
            <rect x="266.05" y="218.51" width="104.46" height="63.55" style="fill: #fff;"/>
            <g>
              <path d="m377.04,246.89c1.98,0,3.58,1.6,3.58,3.57h0c0,1.98-1.6,3.58-3.58,3.58h0c-1.96,0-3.57-1.6-3.57-3.58h0c0-1.97,1.61-3.57,3.57-3.57h0Z" style="fill: #fff;"/>
              <path d="m376.81,230.08c.8,0,1.43.64,1.43,1.43v8.34c0,.79-.63,1.43-1.43,1.43h0c-.79,0-1.43-.64-1.43-1.43v-8.34c0-.79.63-1.43,1.43-1.43h0Z" style="fill: #fff;"/>
              <path d="m376.81,259.28c.8,0,1.43.64,1.43,1.44v8.34c0,.79-.63,1.43-1.43,1.43h0c-.79,0-1.43-.64-1.43-1.43v-8.34c0-.79.63-1.44,1.43-1.44h0Z" style="fill: #fff;"/>
            </g>
          </g>
          <g>
            <path d="m327.49,238.77c0,5.09-4.12,9.21-9.22,9.21s-9.2-4.12-9.2-9.21,4.12-9.21,9.2-9.21,9.22,4.13,9.22,9.21Z" style="fill: #d93d15;"/>
            <path d="m334.54,277.88h-32.53c1.45-15.85,8.19-27.85,16.26-27.85s14.82,12,16.28,27.85Z" style="fill: #d93d15;"/>
            <path d="m330.99,248.76l-2.13-1.79c2.03-2.42,3.15-5.5,3.15-8.67,0-7.44-6.05-13.49-13.5-13.49s-13.49,6.05-13.49,13.49c0,2.85.88,5.56,2.53,7.86l-2.27,1.62c-1.99-2.78-3.04-6.05-3.04-9.49,0-8.97,7.3-16.27,16.27-16.27s16.28,7.3,16.28,16.27c0,3.82-1.35,7.53-3.81,10.46Z" style="fill: #285a73;"/>
            <path d="m330.4,244.41c-1.57,1.02-3.45,1.59-5.46,1.54-2.25-.06-4.41-.91-6.1-2.4l1.09-1.23c1.4,1.23,3.19,1.95,5.06,2,1.78.05,3.45-.5,4.81-1.47l.6,1.57Z" style="fill: #285a73;"/>
            <path d="m319.01,241.93c-.53-.12-1.07.2-1.19.73l-.31,1.27c-.13.53.2,1.06.73,1.19l5.14,1.24c.53.12,1.06-.2,1.19-.73l.31-1.27c.12-.53-.21-1.06-.73-1.19l-5.14-1.23Z" style="fill: #14b0bf;"/>
            <g>
              <path d="m305.31,240.31c-.42-.67-1.13-1.06-1.92-1.06-.43,0-.85.12-1.21.35l-1.55.98c-.51.32-.88.83-1.01,1.42-.14.59-.03,1.19.29,1.71l3.97,6.31c.42.66,1.14,1.06,1.93,1.06.42,0,.84-.12,1.21-.35l1.55-.97c.51-.32.87-.83,1.01-1.42.14-.59.04-1.2-.29-1.71l-3.97-6.31Z" style="fill: #14b0bf;"/>
              <path d="m336.93,241.99c-.14-.59-.49-1.1-1.01-1.42l-1.55-.98c-1.03-.65-2.49-.32-3.13.71l-3.97,6.31c-.32.51-.43,1.12-.29,1.71.14.59.49,1.09,1.01,1.42l1.55.97c.37.23.78.35,1.21.35.79,0,1.51-.4,1.93-1.06l3.97-6.31c.32-.52.43-1.12.29-1.71Z" style="fill: #14b0bf;"/>
            </g>
          </g>
          <g>
            <path d="m263.88,147.7c0,7.53-6.11,13.64-13.64,13.64s-13.64-6.1-13.64-13.64,6.1-13.64,13.64-13.64,13.64,6.11,13.64,13.64Z" style="fill: #284962;"/>
            <path d="m274.34,205.65h-48.2c2.16-23.49,12.13-41.27,24.1-41.27s21.94,17.78,24.1,41.27Z" style="fill: #284962;"/>
            <path d="m269.07,162.5l-3.16-2.65c3.01-3.58,4.66-8.14,4.66-12.84,0-11.02-8.96-19.98-19.98-19.98s-19.99,8.96-19.99,19.98c0,4.21,1.3,8.24,3.76,11.65l-3.35,2.41c-2.96-4.12-4.51-8.98-4.51-14.06,0-13.29,10.81-24.1,24.1-24.1s24.11,10.81,24.11,24.1c0,5.67-2,11.16-5.63,15.49Z" style="fill: #f99a24;"/>
            <path d="m268.2,156.07c-2.33,1.51-5.12,2.36-8.11,2.27-3.33-.08-6.53-1.35-9.02-3.56l1.61-1.82c2.07,1.83,4.72,2.88,7.49,2.95,2.64.08,5.11-.73,7.12-2.16l.9,2.32Z" style="fill: #f99a24;"/>
            <path d="m251.33,152.38c-.79-.19-1.58.29-1.76,1.07l-.46,1.88c-.19.79.29,1.57,1.08,1.76l7.6,1.83c.79.19,1.58-.29,1.76-1.08l.46-1.87c.18-.79-.3-1.58-1.09-1.76l-7.59-1.83Z" style="fill: #d93d15;"/>
            <path d="m236.63,148.44l3.32.57c.54,1.69,2.11,2.89,3.98,2.89s3.44-1.23,3.98-2.95l.08.08s1.06-1.46,2.38-1.49h.03c.75,0,1.49.48,2.21,1.43.5,1.69,2.08,2.92,3.97,2.92s3.49-1.29,4.01-3.03l3.31-1.03-.05-1.34-3.12.89c-.16-2.18-1.95-3.87-4.15-3.87-2.03,0-3.71,1.43-4.12,3.34-.65-.45-1.33-.74-2.06-.74h-.03c-.94.03-1.72.43-2.31.86-.35-1.98-2.07-3.46-4.12-3.46-2.27,0-4.09,1.78-4.18,4.03l-3.12-.52v1.41Z" style="fill: #fff;"/>
            <g>
              <path d="m231.03,149.98c-.62-.98-1.68-1.57-2.85-1.57-.63,0-1.24.18-1.78.52l-2.3,1.45c-.77.47-1.29,1.22-1.49,2.1-.2.87-.05,1.77.43,2.54l5.88,9.35c.62.98,1.68,1.57,2.85,1.57.63,0,1.24-.17,1.79-.52l2.29-1.44c.76-.47,1.29-1.22,1.5-2.1.2-.88.05-1.78-.44-2.54l-5.88-9.35Z" style="fill: #d93d15;"/>
              <path d="m277.87,152.47c-.2-.88-.73-1.62-1.49-2.1l-2.3-1.45c-1.53-.96-3.68-.47-4.63,1.06l-5.88,9.35c-.48.76-.63,1.66-.43,2.54.2.88.72,1.62,1.48,2.1l2.31,1.45c.54.34,1.15.51,1.78.51,1.16,0,2.23-.59,2.85-1.57l5.88-9.35c.48-.76.63-1.66.43-2.54Z" style="fill: #d93d15;"/>
            </g>
            <path d="m253.46,167.6c0,1.78-1.44,3.23-3.23,3.23s-3.23-1.44-3.23-3.23,1.43-3.23,3.23-3.23,3.23,1.45,3.23,3.23Z" style="fill: #fff;"/>
            <polygon points="249.43 169.4 246.44 174.17 250.67 187.28 254.56 174.17 251.43 169.4 249.43 169.4" style="fill: #fff;"/>
          </g>
          <path d="m320.72,179.66c0-7.37-7.22-13.34-16.13-13.34s-16.13,5.97-16.13,13.34,7.22,13.33,16.13,13.33c1.13,0,2.24-.1,3.31-.28,1.75,4.68,3.02,10.98,3.02,10.98l1.4-12.33c5.01-2.27,8.41-6.66,8.41-11.71Z" style="fill: #fff;"/>
          <path d="m203.42,165.16c-9.49,0-17.18,5.41-17.18,12.08,0,2.29.93,4.42,2.5,6.25l-8.5,8.05,13.94-4.13c2.67,1.2,5.83,1.91,9.23,1.91,9.49,0,17.18-5.41,17.18-12.07s-7.69-12.08-17.18-12.08Z" style="fill: #fff;"/>
        </g>
      </g>
    </g>
  </g>
</svg>